<?xml version="1.0" encoding="UTF-8" standalone="no"?>
<!-- Created with Inkscape (http://www.inkscape.org/) -->

<svg
   width="25"
   height="25"
   viewBox="0 0 6.6145833 6.6145837"
   version="1.1"
   id="svg14658"
   inkscape:version="1.1.1 (3bf5ae0d25, 2021-09-20)"
   sodipodi:docname="faviconV3.svg"
   xmlns:inkscape="http://www.inkscape.org/namespaces/inkscape"
   xmlns:sodipodi="http://sodipodi.sourceforge.net/DTD/sodipodi-0.dtd"
   xmlns="http://www.w3.org/2000/svg"
   xmlns:svg="http://www.w3.org/2000/svg">
  <sodipodi:namedview
     id="namedview14660"
     pagecolor="#505050"
     bordercolor="#ffffff"
     borderopacity="1"
     inkscape:pageshadow="0"
     inkscape:pageopacity="0"
     inkscape:pagecheckerboard="1"
     inkscape:document-units="mm"
     showgrid="false"
     units="px"
     inkscape:zoom="20.48"
     inkscape:cx="11.303711"
     inkscape:cy="15.844727"
     inkscape:window-width="1600"
     inkscape:window-height="877"
     inkscape:window-x="-8"
     inkscape:window-y="-8"
     inkscape:window-maximized="1"
     inkscape:current-layer="layer1" />
  <defs
     id="defs14655" />
  <g
     inkscape:label="Capa 1"
     inkscape:groupmode="layer"
     id="layer1">
    <path
       id="path12993-9-5"
       style="fill:#feb000;fill-opacity:1;fill-rule:evenodd;stroke-width:0.0360174"
       d="M 3.3010463,0.06724527 A 3.2400549,3.2400549 0 0 0 0.06724167,3.3135161 3.2400549,3.2400549 0 0 0 3.3134672,6.5473382 3.2400549,3.2400549 0 0 0 6.5473418,3.3011198 l -0.8530878,0.00175 c 0.00455,0.1251011 0.00875,0.2649077 0.012945,0.4405181 0.019243,0.7919734 0.029041,0.8826354 0.1153218,1.0498906 0.033939,0.066051 0.019944,0.069425 -0.067633,0.01606 C 5.6468447,4.7434473 5.5130491,4.5513994 5.3405912,4.2146147 5.0804523,3.7065759 4.9373846,3.5099411 4.8280458,3.5101336 4.6621307,3.5104204 4.5172788,3.7294549 4.0162446,4.7374923 3.7885049,5.1955117 3.5606954,5.6262716 3.5092273,5.696091 3.4118195,5.8282317 3.3988389,5.8339908 3.2635387,5.8051044 3.2171441,5.7952028 3.1968858,5.7752243 3.1784819,5.7212721 3.1297431,5.5786418 3.1490916,5.3896414 3.2943984,4.5823572 3.3548234,4.2473255 3.4142689,3.7523828 3.449817,3.3071448 3.457517,3.2092228 3.464862,3.1128997 3.47011,3.0221151 3.483755,2.7844003 3.46591,2.718825 3.388168,2.718825 3.330542,2.718825 3.2845317,2.768341 3.1619679,2.9622954 3.1091701,3.0459812 3.0227838,3.17379 2.9700913,3.246321 2.9173635,3.318848 2.7663538,3.5744877 2.6344475,3.8143893 2.0444727,4.8873651 1.8310433,5.2345378 1.7614164,5.2345378 1.6863312,5.2345378 1.572129,5.1679062 1.5481969,5.1101154 1.5111786,5.02072 1.534201,4.7010729 1.6201676,4.1085614 1.7191847,3.4267597 1.7235583,3.1693639 1.6366121,3.1360409 1.5740879,3.1120388 1.500997,3.1949124 1.3763682,3.4309198 1.2078991,3.7499302 1.1000298,3.9013425 0.96472944,4.0087989 0.8461187,4.103005 0.53076815,4.2695188 0.49410025,4.2572937 0.4829013,4.2535159 0.49759597,4.2152371 0.52663899,4.1721978 0.55602974,4.1291555 0.65056846,3.9192042 0.73705985,3.7056384 0.95948117,3.1563517 1.1370824,2.8116843 1.5383296,2.1507706 1.6297544,2.0001349 1.7837035,1.7353706 1.8803415,1.5624158 L 2.0561233,1.247961 2.2269367,1.1312954 C 2.3208807,1.0671334 2.4106609,1.014651 2.4264056,1.014651 c 0.03219,0 0.099997,0.068374 0.1344607,0.1353143 0.07533,0.1463077 0.066722,0.7095057 -0.019594,1.2848343 -0.066163,0.4408856 -0.070642,0.5242313 -0.029041,0.5401512 0.024491,0.00934 0.049754,-0.00449 0.082747,-0.045231 C 2.6617015,2.8474073 2.8520033,2.521045 3.049163,2.1507696 3.3823229,1.5250925 3.6731816,1.1581551 3.8609644,1.1264205 c 0.098003,-0.01655 0.1106686,-0.036535 0.1418431,-0.22389087 0.012945,-0.0784015 0.031839,-0.15567742 0.041777,-0.1717196 0.027292,-0.0441733 0.1216898,-0.002796 0.1752571,0.076516 0.078268,0.11615791 0.095938,0.29872057 0.082258,0.85038297 -0.012945,0.5278947 -0.04188,0.8029247 -0.1283025,1.223433 -0.045135,0.2195383 -0.06172,0.3563815 -0.050979,0.4246999 l 0.1012914,-2.38e-4 c 0.020293,-0.034219 0.044085,-0.084535 0.074385,-0.1550441 0.099403,-0.2313819 0.4907126,-0.779423 0.6671593,-0.9343448 0.098561,-0.086543 0.2196223,-0.1466294 0.2954071,-0.1466294 0.074875,0 0.1346705,0.075611 0.2757438,0.3487611 0.1069949,0.2071874 0.1373994,0.3365151 0.1574478,0.8844091 l 0.8530903,-0.00174 A 3.2400549,3.2400549 0 0 0 3.3010463,0.06724527 Z M 4.2241107,3.3055528 4.1228192,3.3057453 c 0.0035,0.020922 0.0091,0.035629 0.017494,0.04404 0.025191,0.025017 0.048704,0.015465 0.083902,-0.044225 z"
       inkscape:export-filename="C:\Users\T440S\Documents\01Proyectos\AgenciaMarketing\PLATAFORMAS\masterhacks.co\faviconV3.png"
       inkscape:export-xdpi="96"
       inkscape:export-ydpi="96" />
  </g>
</svg>
